<svg xmlns="http://www.w3.org/2000/svg" width="17" height="17" viewBox="0 0 17 17">
    <g fill="#3A3A3A" fill-rule="nonzero">
        <path d="M11.164 0C7.945 0 5.327 2.578 5.327 5.746c0 .704.127 1.389.378 2.039l-5.58 5.494a.416.416 0 0 0-.125.296v3.006c0 .232.19.419.425.419h2.517c.113 0 .22-.044.3-.122l.849-.834a.415.415 0 0 0 .124-.296v-1.026h1.04a.422.422 0 0 0 .426-.418v-.41h.417a.422.422 0 0 0 .425-.42v-.9h.915c.113 0 .221-.045.3-.123l1.354-1.332c.66.247 1.356.372 2.072.372 3.218 0 5.836-2.577 5.836-5.745S14.382 0 11.164 0zm0 10.654c-.697 0-1.37-.138-2.002-.411a.43.43 0 0 0-.468.083c0 .002-.002.003-.003.004l-1.429 1.406H6.098a.422.422 0 0 0-.426.419v.9h-.417a.422.422 0 0 0-.425.42v.41H3.79a.422.422 0 0 0-.425.419v1.27l-.6.589H.852v-.592l5.198-5.118a.373.373 0 0 0 0-.533.387.387 0 0 0-.54 0L.85 14.505v-.757L6.507 8.18l.003-.004a.414.414 0 0 0 .085-.46 4.81 4.81 0 0 1-.417-1.97c0-2.707 2.237-4.909 4.986-4.909 2.749 0 4.985 2.202 4.985 4.909 0 2.706-2.236 4.908-4.985 4.908z"/>
        <path d="M13.033 2.267c-.937 0-1.7.762-1.7 1.7 0 .937.763 1.7 1.7 1.7.938 0 1.7-.763 1.7-1.7 0-.938-.762-1.7-1.7-1.7zm0 2.492a.793.793 0 0 1 0-1.585.793.793 0 0 1 0 1.585z"/>
    </g>
</svg>
